<?xml version="1.0" encoding="UTF-8"?>
<svg id="Layer_1" data-name="Layer 1" xmlns="http://www.w3.org/2000/svg" viewBox="0 0 342.08 502.33">
  <defs>
    <style>
      .cls-1 {
        fill: none;
      }

      .cls-2 {
        fill: #7137e4;
      }
    </style>
  </defs>
  <g id="Camada_2" data-name="Camada 2">
    <g id="Camada_1-2" data-name="Camada 1-2">
      <path class="cls-2" d="M92.73,451.48h0c3.8,26.7,25.4,47.69,52.28,49.85,8.67.67,17.33,1,26,1,8.16,0,16.32-.31,24.48-.94,26.71-2,48.17-22.94,51.9-49.47h0c-24.9,6.8-50.58,10.29-76.39,10.38-26.46-.04-52.79-3.68-78.27-10.82Z"/>
      <path class="cls-2" d="M151.15,1.13C71.75,10.15,8.34,74.88.79,154.43c-8.85,93.29,57.81,173,145.87,185.64h0c17.8,2.79,35.94,2.57,53.67-.66h1.16c.9-.19,1.83-.19,2.73,0,10.92.21,19.59,9.24,19.38,20.15-.15,7.62-4.66,14.47-11.6,17.62-.38.22-.79.41-1.2.56-.74.37-1.52.66-2.32.88-.37.09-.75.15-1.13.16l-13,1.83c-7.79.93-15.62,1.42-23.46,1.46-7.65-.04-15.29-.51-22.89-1.41l-12.9-1.86c-3.49-.62-6.9-1.29-10.24-2l4,.89c-1.33-.3-2.71-.57-4-.87s-2.32-.48-3.44-.8c-3.05-.72-6-1.52-8.9-2.33l-4.09-1.2c-2.72-.88-5.45-1.76-8-2.64-1.13-.4-2.17-.8-3.21-1.21-4.33-1.6-8.34-3.28-12.18-5-1.63-.66-3.17-1.39-4.66-2.06l.34.15-.34-.15-.41-.2-.51-.23-.13-.06h0c-.4-.17-.8-.34-1.16-.52.19,7.14,1.67,14.18,4.38,20.79v.16l.28.68c.03.06.05.13.07.19h0v.05l.24.57v-.11c7.3,17.08,22.09,29.83,40.06,34.52q.08,0,.16.08c2.16.4,4.17.88,6.33,1.2h.32c13.55,2.3,27.26,3.45,41,3.44,13.74,0,27.45-1.15,41-3.44,2.17-.32,4.17-.8,6.34-1.2,26.07-6.8,44.52-29.98,45.28-56.91v-1.36c0-13.46-4.51-26.53-12.82-37.11h0c-11.37-14.52-28.79-23-47.23-23-1.74,0-3.4.25-5.09.41l.23-.19-4.23.41c-3.82.73-7.67,1.27-11.54,1.6l-.95.09c-64.31,5.91-124.45-37.29-138.58-100.3C23.33,111.4,96.06,32.09,184.17,40.72c59.56,5.83,108.46,52.83,116.58,112.12,4.45,31.53-2.84,63.59-20.48,90.1-11.43,17.22-9.32,40.1,4.42,55.53h0c36.46-32.34,57.35-78.73,57.39-127.47C342.08,70.14,254.25-10.58,151.15,1.13Z"/>
      <path d="M80,361.37l-.5-.23.51.23h-.01Z"/>
      <line class="cls-1" x1="79.33" y1="361.08" x2="79.46" y2="361.14"/>
      <line class="cls-1" x1="79.97" y1="361.37" x2="80.38" y2="361.57"/>
      <line class="cls-1" x1="80.38" y1="361.57" x2="80.72" y2="361.72"/>
      <line class="cls-1" x1="79.46" y1="361.14" x2="79.97" y2="361.37"/>
      <line class="cls-1" x1="241.64" y1="228.04" x2="241.05" y2="228.77"/>
      <path class="cls-2" d="M241.76,110.57c31.94,38.57,26.87,95.66-11.36,128h0c-12.63-15-16-35.41-10.13-54.13,1.15-3.67,1.9-7.45,2.22-11.28,1.23-13.33-2.91-26.6-11.49-36.88l-.16-.19c-11.23-13.23-28.43-19.82-45.62-17.47-19.44,2.59-38.9-4.4-51.45-19.48h0c38.3-31.88,95.58-26.91,127.68,11.08l.31.35Z"/>
    </g>
  </g>
</svg>