<?xml version="1.0" encoding="UTF-8"?>
<svg id="Layer_1" data-name="Layer 1" xmlns="http://www.w3.org/2000/svg" viewBox="0 0 811.98 202.18">
  <defs>
    <style>
      .cls-1 {
        fill: none;
      }

      .cls-2 {
        fill: #759bde;
      }

      .cls-3 {
        fill: #7137e4;
      }
    </style>
  </defs>
  <g id="Camada_2" data-name="Camada 2">
    <g id="Camada_1-2" data-name="Camada 1-2">
      <path d="M202.52,64.59l-2.25-.49c-8.22-1.76-12-4.2-12-9.29s3.63-8.22,11.45-8.22,12.63,3.13,12.63,11v2.93h12.69v-2.97c0-14.87-10.67-22.31-25.35-22.31s-24.17,7.44-24.17,20,8.31,17.28,22.52,20.41l2.25.49c8.75,1.96,13.75,3.88,13.75,9.59s-4.41,9.39-13.21,9.39-14.16-4.1-14.16-12.33v-2.77h-12.72v2.74c0,14.87,11.06,23.68,26.91,23.68s25.93-8.61,25.93-21.13-9.69-17.59-24.27-20.72Z"/>
      <rect x="236.78" y="56.57" width="12.33" height="48.53"/>
      <path d="M242.94,35.24c-4.18-.18-7.72,3.07-7.9,7.25,0,.19,0,.39,0,.58,0,4.38,3.55,7.93,7.93,7.93s7.93-3.55,7.93-7.93c.14-4.18-3.13-7.69-7.32-7.84-.21,0-.43,0-.64,0Z"/>
      <path d="M316.82,55.79c-7.44,0-11.16,3.13-13.31,7.24h-1.76c-2.25-4.31-6.17-7.24-13.11-7.24-6.46,0-10.28,2.83-11.94,6.06h-1.76v-5.28h-12.14v48.53h12.33v-28.67c0-6.65,3.14-10.37,8.81-10.37,4.89,0,7.83,2.74,7.83,8v31h12.33v-28.63c0-6.65,3.13-10.37,8.8-10.37,4.9,0,7.83,2.74,7.83,8v31h12.31v-31.86c0-11.74-7.22-17.41-16.22-17.41Z"/>
      <path d="M375.53,55.2c-8.8,0-13,3.52-15.26,7.24h-1.76v-5.87h-12.13v68.1h12.32v-25.15h1.77c2.05,3.43,6.26,7,15.06,7,11.75,0,21.92-9,21.92-24.85v-1.65c0-15.82-10.27-24.82-21.92-24.82ZM385.12,81.32c0,9.4-5.67,14.39-13.31,14.39s-13.3-5-13.3-14.39v-1c0-9.4,5.77-14.39,13.3-14.39s13.31,5,13.31,14.39v1Z"/>
      <rect x="408.81" y="36.61" width="12.33" height="68.49"/>
      <rect x="434.84" y="56.57" width="12.33" height="48.53"/>
      <path d="M441.04,35.24c-4.18-.23-7.76,2.96-7.99,7.14-.01.23-.02.46,0,.69,0,4.38,3.56,7.93,7.94,7.92,4.37,0,7.91-3.55,7.92-7.92.14-4.18-3.14-7.69-7.32-7.83-.18,0-.36,0-.54,0Z"/>
      <path d="M506.95,35.63c-4.18-.19-7.72,3.04-7.91,7.22,0,.2-.01.41,0,.61.16,4.38,3.83,7.8,8.21,7.64,4.16-.15,7.5-3.48,7.64-7.64.14-4.18-3.13-7.69-7.32-7.83-.21,0-.42,0-.62,0Z"/>
      <path d="M481.22,49.72c0-2,1-2.93,2.74-2.93h7.44v-10.18h-11.75c-6.46,0-10.76,4.3-10.76,11v9h-12.33v10.14h12.33v38.35h12.33v-38.35h19.57v38.35h12.32v-48.53h-31.89v-6.85Z"/>
      <path d="M549.91,95.51c-7.43,0-13.11-5-13.11-14.19v-1c0-9.2,5.68-14.19,13.11-14.19s11.06,4.5,11.85,10.37l11.93-2.48c-2-10.77-10.18-18.79-24.07-18.79s-25.15,9.1-25.15,24.95v1.34c0,15.85,11.06,25,25.15,25s21.82-8.12,24.36-18.59l-11.94-2.91c-1.07,6.29-4.69,10.49-12.13,10.49Z"/>
      <path d="M625.04,92.02v-18.13c0-12.14-8-18.69-20.75-18.69s-19,6.36-21.32,13.7l11.34,3.81c.88-4.4,3.62-7.53,9.79-7.53s9,3.33,9,7.83v2.74h-13.28c-10.95,0-18.78,5.18-18.78,15.17s7.83,15.55,18.19,15.55,13.21-5.48,14.09-7.93h1.87v.1c0,3.92,3.52,6.46,8.31,6.46h8.22v-10.18h-3.91c-1.77,0-2.77-.97-2.77-2.9ZM613.13,85.92c0,6.46-4.89,10.57-11.74,10.57-5.28,0-8-2.45-8-6s2.74-5.58,7.34-5.58h12.42l-.02,1.01Z"/>
      <path d="M668.81,55.79c-8.71,0-12.62,3.81-14.19,7.14h-1.76v-6.36h-12.13v48.53h12.31v-24.66c0-9,4.4-14.28,11.93-14.28,6.66,0,10.38,3.62,10.38,11v28h12.32v-29c.02-12.06-7.51-20.37-18.86-20.37Z"/>
      <path d="M737.41,62.15h-1.76c-2.06-3.43-6.26-7-15.07-7-11.74,0-21.92,9-21.92,24.85v1.62c0,15.85,10.28,24.85,21.92,24.85,8.81,0,13-3.52,15.27-7.24h1.76v5.87h12.13V36.61h-12.33v25.54ZM737.61,81.32c0,9.4-5.77,14.39-13.31,14.39s-13.26-4.99-13.26-14.39v-1c0-9.4,5.68-14.39,13.31-14.39s13.31,5,13.31,14.39l-.05,1Z"/>
      <path d="M786.53,55.2c-14.48,0-25.44,9.2-25.44,24.85v1.57c0,15.65,11,24.85,25.44,24.85s25.45-9.2,25.45-24.85v-1.6c0-15.62-10.94-24.82-25.45-24.82ZM799.65,81.32c0,9.1-5.58,14.19-13.12,14.19s-13.11-5.09-13.11-14.19v-1c0-9.1,5.48-14.19,13.11-14.19s13.12,5.09,13.12,14.19v1Z"/>
      <path d="M219.55,180.02v-18.1c0-12.13-8-18.69-20.74-18.69s-19,6.36-21.33,13.7l11.35,3.81c.88-4.4,3.62-7.53,9.78-7.53s9,3.32,9,7.83v2.74h-13.3c-11,0-18.79,5.18-18.79,15.16s7.83,15.56,18.2,15.56,13.21-5.48,14.09-7.93h1.86v.1c0,3.92,3.52,6.46,8.32,6.46h8.22v-10.11h-3.92c-1.76,0-2.74-1-2.74-3ZM207.61,174.02c0,6.46-4.89,10.57-11.73,10.57-5.29,0-8-2.45-8-6s2.74-5.58,7.34-5.58h12.42l-.03,1.01Z"/>
      <path d="M276.31,136.41h11.73v36.2c0,6.26-3.33,9.79-9.1,9.79-6.17,0-9.69-3.62-9.69-9.79v-6.45h-12.9v6.45c0,13.8,8.91,21.92,23,21.92s21.62-7.73,21.62-21.92v-36.2h7.83v-11.74h-32.49v11.74Z"/>
      <path d="M339.13,143.26c-14.48,0-25.43,9.2-25.43,24.85v1.57c0,15.65,10.95,24.85,25.43,24.85s25.45-9.2,25.45-24.85v-1.57c0-15.65-10.96-24.85-25.45-24.85ZM352.25,169.38c0,9.1-5.58,14.19-13.12,14.19s-13.09-5.09-13.09-14.19v-1c0-9.1,5.49-14.19,13.11-14.19s13.12,5.09,13.12,14.19l-.02,1Z"/>
      <path d="M389.83,150.11h-1.79v-5.48h-12.11v48.53h12.33v-27.59c0-6.85,4.5-10.18,10.76-10.18h6.07v-11h-5.87c-4.5.05-8.02,1.8-9.39,5.72Z"/>
      <path d="M442.77,143.84c-8.71,0-12.62,3.82-14.19,7.15h-1.76v-6.36h-12.13v48.53h12.35v-24.66c0-9,4.4-14.28,11.93-14.28,6.66,0,10.38,3.62,10.38,11v28h12.32v-29c-.02-12.06-7.55-20.38-18.9-20.38Z"/>
      <path d="M515.87,180.02v-18.1c0-12.13-8-18.69-20.74-18.69s-19,6.36-21.33,13.7l11.35,3.81c.88-4.4,3.62-7.53,9.78-7.53s9,3.32,9,7.83v2.74h-13.3c-11,0-18.79,5.18-18.79,15.16s7.83,15.56,18.2,15.56,13.21-5.48,14.09-7.93h1.91v.1c0,3.92,3.52,6.46,8.32,6.46h8.21v-10.11h-3.91c-1.81,0-2.79-1-2.79-3ZM503.93,174.02c0,6.46-4.89,10.57-11.73,10.57-5.29,0-8-2.45-8-6s2.74-5.58,7.34-5.58h12.42l-.03,1.01Z"/>
      <path d="M566.96,150.21h-1.77c-2-3.43-6.26-6.95-15.06-6.95-11.75,0-21.92,9-21.92,24.85v1.57c0,15.85,10.27,24.85,21.92,24.85,8.8,0,13-3.52,15.26-7.24h1.76v5.87h12.13v-68.49h-12.32v25.54ZM567.15,169.38c0,9.4-5.77,14.38-13.31,14.38s-13.3-5-13.3-14.38v-1c0-9.4,5.67-14.39,13.3-14.39s13.31,5,13.31,14.39v1Z"/>
      <path d="M636.63,183.02c-1.77,0-2.74-1-2.74-2.93v-18.1c0-12.13-8-18.69-20.75-18.69s-19,6.36-21.33,13.7l11.35,3.81c.88-4.4,3.62-7.53,9.79-7.53s9,3.32,9,7.83v2.74h-13.31c-11,0-18.78,5.18-18.78,15.16s7.83,15.56,18.19,15.56,13.21-5.48,14.09-7.93h1.9v.1c0,3.92,3.51,6.46,8.31,6.46h8.22v-10.18h-3.94ZM621.95,174.02c0,6.46-4.89,10.57-11.74,10.57-5.29,0-8-2.45-8-6s2.73-5.58,7.33-5.58h12.43l-.02,1.01Z"/>
      <path class="cls-3" d="M37.36,181.7h0c1.47,10.76,10.18,19.08,21,20.06,3.48.28,7,.42,10.47.42,3.28,0,6.57-.13,9.85-.38,10.76-.93,19.44-9.2,20.88-19.91h0c-10,2.72-20.32,4.11-30.69,4.13-10.65,0-21.25-1.45-31.51-4.32Z"/>
      <path class="cls-3" d="M60.86.48C23.13,4.85-3.91,38.98.46,76.71c3.6,31.03,27.65,55.74,58.58,60.16h0c3.24.49,6.51.75,9.79.78,3.96,0,7.91-.33,11.81-1h.46c.36-.07.74-.07,1.1,0,4.41.2,7.83,3.94,7.63,8.35-.13,2.93-1.86,5.56-4.5,6.84-.15.09-.31.17-.48.23-.3.15-.62.27-.94.35-.15.04-.3.07-.45.07l-5.22.73c-3.13.38-6.28.58-9.44.59-3.09-.02-6.17-.21-9.24-.57l-5.17-.75c-1.41-.24-2.78-.52-4.12-.82l1.62.36-1.62-.35c-.48-.1-.94-.19-1.39-.32-1.22-.29-2.42-.61-3.58-.94l-1.64-.48-3.23-1.06-1.29-.49c-1.74-.64-3.35-1.32-4.9-2-.65-.27-1.27-.56-1.87-.83l.13.06-.13-.06-.17-.08-.2-.09h-.05c-.16-.06-.32-.13-.47-.21.08,2.87.67,5.71,1.76,8.37v.07l.12.27v.08h0l.1.23h0c2.97,6.86,8.95,11.96,16.19,13.82h.06c.87.16,1.68.35,2.55.48h.13c5.44.93,10.96,1.39,16.48,1.39,5.53,0,11.06-.47,16.51-1.39.87-.13,1.68-.32,2.55-.48,10.49-2.74,17.91-12.07,18.22-22.9v-.55c.02-5.41-1.78-10.67-5.11-14.93h0c-4.57-5.84-11.58-9.26-19-9.26-.69,0-1.36.11-2,.17l.09-.08-1.7.17c-1.54.29-3.09.51-4.65.64h-.38c-25.88,2.38-50.08-15-55.76-40.36-7.35-28.18,9.53-56.98,37.71-64.34,28.18-7.35,56.98,9.53,64.34,37.71.62,2.38,1.07,4.8,1.36,7.24,1.79,12.69-1.15,25.59-8.25,36.25-4.53,6.99-3.8,16.16,1.78,22.35h0c28.39-25.2,30.97-68.64,5.77-97.03C105.4,6.28,83.19-2.17,60.86.48Z"/>
      <path class="cls-2" d="M32.22,145.44l-.2-.09.2.09Z"/>
      <line class="cls-1" x1="31.97" y1="145.32" x2="32.02" y2="145.35"/>
      <line class="cls-1" x1="32.22" y1="145.44" x2="32.39" y2="145.52"/>
      <line class="cls-1" x1="32.39" y1="145.52" x2="32.52" y2="145.58"/>
      <line class="cls-1" x1="32.02" y1="145.35" x2="32.22" y2="145.44"/>
      <line class="cls-1" x1="97.28" y1="91.79" x2="97.04" y2="92.08"/>
      <path class="cls-3" d="M97.33,44.52c12.85,15.52,10.81,38.49-4.58,51.5h0c-4.99-6.09-6.53-14.3-4.07-21.78.46-1.48.76-3,.89-4.54.5-5.36-1.16-10.71-4.62-14.84l-.06-.08c-4.53-5.31-11.45-7.95-18.36-7-7.79,1.13-15.61-1.83-20.7-7.83h0c15.46-12.82,38.35-10.84,51.38,4.45l.12.12Z"/>
    </g>
  </g>
</svg>