<svg xmlns="http://www.w3.org/2000/svg" viewBox="0 0 342.08 502.37"><defs><style>.cls-1{fill:#fca547;}</style></defs><g id="Camada_2" data-name="Camada 2"><g id="Camada_1-2" data-name="Camada 1"><path class="cls-1" d="M92.73,451.48h0c3.8,26.7,25.4,47.69,52.28,49.85q13,1,26,1,12.24,0,24.48-.94c26.71-2,48.17-22.94,51.9-49.47h0A294,294,0,0,1,171,462.3,291.35,291.35,0,0,1,92.73,451.48Z"/><path class="cls-1" d="M151.15,1.13C71.75,10.15,8.34,74.88.79,154.43c-8.85,93.29,57.81,173,145.87,185.64v0a160.55,160.55,0,0,0,53.67-.66h1.16a6.61,6.61,0,0,1,2.73,0A19.77,19.77,0,0,1,212,377.18a8.07,8.07,0,0,1-1.2.56,12.82,12.82,0,0,1-2.32.88,5.4,5.4,0,0,1-1.13.16l-13,1.83a207.32,207.32,0,0,1-23.46,1.46A205.7,205.7,0,0,1,148,380.66L135.1,378.8q-5.23-.93-10.24-2l4,.89c-1.33-.3-2.71-.57-4-.87s-2.32-.48-3.44-.8c-3.05-.72-6-1.52-8.9-2.33l-4.09-1.2c-2.72-.88-5.45-1.76-8-2.64-1.13-.4-2.17-.8-3.21-1.21-4.33-1.6-8.34-3.28-12.18-5-1.63-.66-3.17-1.39-4.66-2.06l.34.15-.34-.15-.41-.2-.51-.23-.13-.06h0c-.4-.17-.8-.34-1.16-.52a59,59,0,0,0,4.38,20.79l0,.16.28.68a1.46,1.46,0,0,1,.07.19v0h0l0,.05.24.57v-.11a60.07,60.07,0,0,0,40.06,34.52c.08,0,.08,0,.16.08,2.16.4,4.17.88,6.33,1.2h.32a244.39,244.39,0,0,0,41,3.44,246.71,246.71,0,0,0,41-3.44c2.17-.32,4.17-.8,6.34-1.2a60.59,60.59,0,0,0,45.28-56.91v-1.36a60,60,0,0,0-12.82-37.11h0a60,60,0,0,0-47.23-23c-1.74,0-3.4.25-5.09.41l.23-.19-4.23.41a111.19,111.19,0,0,1-11.54,1.6l-.95.09c-64.31,5.91-124.45-37.29-138.58-100.3C23.33,111.4,96.06,32.09,184.17,40.72c59.56,5.83,108.46,52.83,116.58,112.12a129.9,129.9,0,0,1-20.48,90.1c-11.43,17.22-9.32,40.1,4.42,55.53h0A170.6,170.6,0,0,0,342.08,171C342.08,70.14,254.25-10.58,151.15,1.13Z"/><path class="cls-1" d="M80,361.37l-.5-.23.51.23Z"/><line class="cls-1" x1="79.33" y1="361.08" x2="79.46" y2="361.14"/><line class="cls-1" x1="79.97" y1="361.37" x2="80.38" y2="361.57"/><line class="cls-1" x1="80.38" y1="361.57" x2="80.72" y2="361.72"/><line class="cls-1" x1="79.46" y1="361.14" x2="79.97" y2="361.37"/><line class="cls-1" x1="241.64" y1="228.04" x2="241.05" y2="228.77"/><path class="cls-1" d="M241.76,110.57a91.34,91.34,0,0,1-11.36,128h0c-12.63-15-16-35.41-10.13-54.13a52.18,52.18,0,0,0,2.22-11.28A50.33,50.33,0,0,0,211,136.28l-.16-.19a50.82,50.82,0,0,0-45.62-17.47c-19.44,2.59-38.9-4.4-51.45-19.48h0c38.3-31.88,95.58-26.91,127.68,11.08Z"/></g></g></svg>