<svg xmlns="http://www.w3.org/2000/svg" viewBox="0 0 811.94 202.16"><defs><style>.cls-1{fill:#759bde;}</style></defs><g id="Camada_2" data-name="Camada 2"><g id="Camada_1-2" data-name="Camada 1"><path d="M202.48,64.57l-2.25-.49c-8.22-1.76-12-4.2-12-9.29s3.63-8.22,11.45-8.22,12.63,3.13,12.63,11v2.93H225V57.53c0-14.87-10.67-22.31-25.35-22.31s-24.17,7.44-24.17,20S183.79,72.5,198,75.63l2.25.49C209,78.08,214,80,214,85.71c0,5.48-4.41,9.39-13.21,9.39S186.63,91,186.63,82.77V80H173.91v2.74c0,14.87,11.06,23.68,26.91,23.68s25.93-8.61,25.93-21.13S217.06,67.7,202.48,64.57Z"/><rect x="236.74" y="56.55" width="12.33" height="48.53"/><path d="M242.9,35.22A7.58,7.58,0,0,0,235,43.05a7.93,7.93,0,0,0,15.86,0A7.58,7.58,0,0,0,242.9,35.22Z"/><path d="M316.78,55.77c-7.44,0-11.16,3.13-13.31,7.24h-1.76c-2.25-4.31-6.17-7.24-13.11-7.24-6.46,0-10.28,2.83-11.94,6.06H274.9V56.55H262.76v48.53h12.33V76.41c0-6.65,3.14-10.37,8.81-10.37,4.89,0,7.83,2.74,7.83,8v31h12.33V76.41c0-6.65,3.13-10.37,8.8-10.37,4.9,0,7.83,2.74,7.83,8v31H333V73.18C333,61.44,325.78,55.77,316.78,55.77Z"/><path d="M375.49,55.18c-8.8,0-13,3.52-15.26,7.24h-1.76V56.55H346.34v68.1h12.32V99.5h1.77c2.05,3.43,6.26,7,15.06,7,11.75,0,21.92-9,21.92-24.85V80C397.41,64.18,387.14,55.18,375.49,55.18Zm9.59,26.12c0,9.4-5.67,14.39-13.31,14.39s-13.3-5-13.3-14.39v-1c0-9.4,5.77-14.39,13.3-14.39s13.31,5,13.31,14.39Z"/><rect x="408.77" y="36.59" width="12.33" height="68.49"/><rect x="434.8" y="56.55" width="12.33" height="48.53"/><path d="M441,35.22A7.58,7.58,0,0,0,433,43.05a7.93,7.93,0,0,0,15.86,0A7.58,7.58,0,0,0,441,35.22Z"/><path d="M506.91,35.61A7.57,7.57,0,0,0,499,43.44a7.93,7.93,0,0,0,15.85,0A7.58,7.58,0,0,0,506.91,35.61Z"/><path d="M481.18,49.7c0-2,1-2.93,2.74-2.93h7.44V36.59H479.61c-6.46,0-10.76,4.3-10.76,11v9H456.52V66.73h12.33v38.35h12.33V66.73h19.57v38.35h12.32V56.55H481.18Z"/><path d="M549.87,95.49c-7.43,0-13.11-5-13.11-14.19v-1c0-9.2,5.68-14.19,13.11-14.19s11.06,4.5,11.85,10.37L573.65,74c-2-10.77-10.18-18.79-24.07-18.79-14.09,0-25.15,9.1-25.15,24.95V81.5c0,15.85,11.06,25,25.15,25,13.89,0,21.82-8.12,24.36-18.59L562,85C560.93,91.29,557.31,95.49,549.87,95.49Z"/><path d="M625,92V73.87c0-12.14-8-18.69-20.75-18.69s-19,6.36-21.32,13.7l11.34,3.81c.88-4.4,3.62-7.53,9.79-7.53s9,3.33,9,7.83v2.74H599.78C588.83,75.73,581,80.91,581,90.9s7.83,15.55,18.19,15.55c10.18,0,13.21-5.48,14.09-7.93h1.87v.1c0,3.92,3.52,6.46,8.31,6.46h8.22V94.9h-3.91C626,94.9,625,93.93,625,92ZM613.09,85.9c0,6.46-4.89,10.57-11.74,10.57-5.28,0-8-2.45-8-6s2.74-5.58,7.34-5.58h12.42Z"/><path d="M668.77,55.77c-8.71,0-12.62,3.81-14.19,7.14h-1.76V56.55H640.69v48.53H653V80.42c0-9,4.4-14.28,11.93-14.28,6.66,0,10.38,3.62,10.38,11v28h12.32v-29C687.65,64.08,680.12,55.77,668.77,55.77Z"/><path d="M737.37,62.13h-1.76c-2.06-3.43-6.26-7-15.07-7-11.74,0-21.92,9-21.92,24.85V81.6c0,15.85,10.28,24.85,21.92,24.85,8.81,0,13-3.52,15.27-7.24h1.76v5.87H749.7V36.59H737.37Zm.2,19.17c0,9.4-5.77,14.39-13.31,14.39S711,90.7,711,81.3v-1c0-9.4,5.68-14.39,13.31-14.39s13.31,5,13.31,14.39Z"/><path d="M786.49,55.18c-14.48,0-25.44,9.2-25.44,24.85V81.6c0,15.65,11,24.85,25.44,24.85s25.45-9.2,25.45-24.85V80C811.94,64.38,801,55.18,786.49,55.18ZM799.61,81.3c0,9.1-5.58,14.19-13.12,14.19S773.38,90.4,773.38,81.3v-1c0-9.1,5.48-14.19,13.11-14.19s13.12,5.09,13.12,14.19Z"/><path d="M219.51,180v-18.1c0-12.13-8-18.69-20.74-18.69s-19,6.36-21.33,13.7l11.35,3.81c.88-4.4,3.62-7.53,9.78-7.53s9,3.32,9,7.83v2.74h-13.3c-11,0-18.79,5.18-18.79,15.16s7.83,15.56,18.2,15.56c10.17,0,13.21-5.48,14.09-7.93h1.86v.1c0,3.92,3.52,6.46,8.32,6.46h8.22V183h-3.92C220.49,183,219.51,182,219.51,180ZM207.57,174c0,6.46-4.89,10.57-11.73,10.57-5.29,0-8-2.45-8-6s2.74-5.58,7.34-5.58h12.42Z"/><path d="M276.27,136.39H288v36.2c0,6.26-3.33,9.79-9.1,9.79-6.17,0-9.69-3.62-9.69-9.79v-6.45H256.31v6.45c0,13.8,8.91,21.92,23,21.92,13.4,0,21.62-7.73,21.62-21.92v-36.2h7.83V124.65H276.27Z"/><path d="M339.09,143.24c-14.48,0-25.43,9.2-25.43,24.85v1.57c0,15.65,10.95,24.85,25.43,24.85s25.45-9.2,25.45-24.85v-1.57C364.54,152.44,353.58,143.24,339.09,143.24Zm13.12,26.12c0,9.1-5.58,14.19-13.12,14.19S326,178.46,326,169.36v-1c0-9.1,5.49-14.19,13.11-14.19s13.12,5.09,13.12,14.19Z"/><path d="M389.79,150.09H388v-5.48H375.89v48.53h12.33V165.55c0-6.85,4.5-10.18,10.76-10.18h6.07v-11h-5.87C394.68,144.42,391.16,146.17,389.79,150.09Z"/><path d="M442.73,143.82c-8.71,0-12.62,3.82-14.19,7.15h-1.76v-6.36H414.65v48.53H427V168.48c0-9,4.4-14.28,11.93-14.28,6.66,0,10.38,3.62,10.38,11v28h12.32v-29C461.61,152.14,454.08,143.82,442.73,143.82Z"/><path d="M515.83,180v-18.1c0-12.13-8-18.69-20.74-18.69s-19,6.36-21.33,13.7l11.35,3.81c.88-4.4,3.62-7.53,9.78-7.53s9,3.32,9,7.83v2.74h-13.3c-11,0-18.79,5.18-18.79,15.16s7.83,15.56,18.2,15.56c10.17,0,13.21-5.48,14.09-7.93H506v.1c0,3.92,3.52,6.46,8.32,6.46h8.21V183h-3.91C516.81,183,515.83,182,515.83,180ZM503.89,174c0,6.46-4.89,10.57-11.73,10.57-5.29,0-8-2.45-8-6s2.74-5.58,7.34-5.58h12.42Z"/><path d="M566.92,150.19h-1.77c-2-3.43-6.26-6.95-15.06-6.95-11.75,0-21.92,9-21.92,24.85v1.57c0,15.85,10.27,24.85,21.92,24.85,8.8,0,13-3.52,15.26-7.24h1.76v5.87h12.13V124.65H566.92Zm.19,19.17c0,9.4-5.77,14.38-13.31,14.38s-13.3-5-13.3-14.38v-1c0-9.4,5.67-14.39,13.3-14.39s13.31,5,13.31,14.39Z"/><path d="M636.59,183c-1.77,0-2.74-1-2.74-2.93v-18.1c0-12.13-8-18.69-20.75-18.69s-19,6.36-21.33,13.7l11.35,3.81c.88-4.4,3.62-7.53,9.79-7.53s9,3.32,9,7.83v2.74H608.6c-11,0-18.78,5.18-18.78,15.16s7.83,15.56,18.19,15.56c10.18,0,13.21-5.48,14.09-7.93H624v.1c0,3.92,3.51,6.46,8.31,6.46h8.22V183Zm-14.68-9c0,6.46-4.89,10.57-11.74,10.57-5.29,0-8-2.45-8-6s2.73-5.58,7.33-5.58h12.43Z"/><path class="cls-1" d="M37.32,181.68h0a23.31,23.31,0,0,0,21,20.06c3.48.28,7,.42,10.47.42,3.28,0,6.57-.13,9.85-.38a23.06,23.06,0,0,0,20.88-19.91h0A118.18,118.18,0,0,1,68.83,186,117.16,117.16,0,0,1,37.32,181.68Z"/><path class="cls-1" d="M60.82.46A68.77,68.77,0,0,0,59,136.85h0a68.77,68.77,0,0,0,9.79.78,68.61,68.61,0,0,0,11.81-1h.46a2.87,2.87,0,0,1,1.1,0,8,8,0,0,1,3.13,15.19,3.49,3.49,0,0,1-.48.23,4.87,4.87,0,0,1-.94.35,1.76,1.76,0,0,1-.45.07l-5.22.73a81.62,81.62,0,0,1-9.44.59,82.9,82.9,0,0,1-9.24-.57l-5.17-.75c-1.41-.24-2.78-.52-4.12-.82l1.62.36-1.62-.35c-.48-.1-.94-.19-1.39-.32-1.22-.29-2.42-.61-3.58-.94l-1.64-.48-3.23-1.06-1.29-.49c-1.74-.64-3.35-1.32-4.9-2-.65-.27-1.27-.56-1.87-.83l.13.06-.13-.06-.17-.08-.2-.09-.05,0h0a3.35,3.35,0,0,1-.47-.21,23.75,23.75,0,0,0,1.76,8.37v.07l.12.27,0,.08v0h0v0l.1.23v0A24.2,24.2,0,0,0,49.61,168s0,0,.06,0c.87.16,1.68.35,2.55.48h.13a98.12,98.12,0,0,0,16.48,1.39,99.13,99.13,0,0,0,16.51-1.39c.87-.13,1.68-.32,2.55-.48a24.39,24.39,0,0,0,18.22-22.9v-.55A24.12,24.12,0,0,0,101,129.62h0a24.13,24.13,0,0,0-19-9.26c-.69,0-1.36.11-2,.17l.09-.08-1.7.17a45.2,45.2,0,0,1-4.65.64l-.38,0c-25.88,2.38-50.08-15-55.76-40.36A52.73,52.73,0,1,1,121,61.51a52.25,52.25,0,0,1-8.25,36.25,18.42,18.42,0,0,0,1.78,22.35h0A68.73,68.73,0,0,0,60.82.46Z"/><path class="cls-1" d="M32.18,145.42l-.2-.09.2.09Z"/><line class="cls-1" x1="31.93" y1="145.3" x2="31.98" y2="145.33"/><line class="cls-1" x1="32.18" y1="145.42" x2="32.35" y2="145.5"/><line class="cls-1" x1="32.35" y1="145.5" x2="32.48" y2="145.56"/><line class="cls-1" x1="31.98" y1="145.33" x2="32.18" y2="145.42"/><line class="cls-1" x1="97.24" y1="91.77" x2="97" y2="92.06"/><path class="cls-1" d="M97.29,44.5A36.75,36.75,0,0,1,92.71,96h0a23,23,0,0,1-4.07-21.78,20.86,20.86,0,0,0,.89-4.54,20.22,20.22,0,0,0-4.62-14.84l-.06-.08a20.48,20.48,0,0,0-18.36-7,22.83,22.83,0,0,1-20.7-7.83h0a36.71,36.71,0,0,1,51.38,4.45Z"/></g></g></svg>