<svg xmlns="http://www.w3.org/2000/svg" viewBox="0 0 742.07 555.05"><defs><style>.cls-1,.cls-2{fill:none;}.cls-1{stroke:#000;stroke-linecap:round;stroke-linejoin:round;stroke-width:0;}</style></defs><g id="Camada_2" data-name="Camada 2"><g id="Camada_1-2" data-name="Camada 1"><path d="M316,321.22h0c2.71,19,18.07,33.93,37.2,35.46q9.26.75,18.52.75,8.7,0,17.42-.67c19-1.46,34.27-16.33,36.92-35.2h0a209.07,209.07,0,0,1-54.34,7.36A207.47,207.47,0,0,1,316,321.22Z"/><path d="M357.57.81C301.08,7.22,256,53.27,250.59,109.87,244.29,176.25,291.72,233,354.38,242v0a114.26,114.26,0,0,0,38.19-.47h.83a4.49,4.49,0,0,1,1.94,0,14.07,14.07,0,0,1,5.53,26.86,6.62,6.62,0,0,1-.86.4,10,10,0,0,1-1.65.62,3.78,3.78,0,0,1-.8.12l-9.22,1.3a148.8,148.8,0,0,1-16.7,1,144.91,144.91,0,0,1-16.33-1l-9.15-1.32c-2.48-.44-4.92-.92-7.29-1.45,1,.21,1.93.41,2.88.63-.95-.21-1.92-.4-2.87-.62s-1.65-.34-2.45-.57c-2.17-.51-4.28-1.08-6.33-1.65l-2.91-.86c-1.94-.63-3.88-1.25-5.7-1.88-.8-.29-1.54-.57-2.28-.86-3.08-1.14-5.93-2.33-8.67-3.53-1.16-.47-2.25-1-3.31-1.47l.24.11-.24-.11-.3-.14-.36-.17-.09,0h0c-.28-.12-.56-.24-.82-.37a42.07,42.07,0,0,0,3.12,14.79l0,.12.2.48.05.14v0h0v0l.18.41v-.07A42.74,42.74,0,0,0,337.73,297c.06,0,.06,0,.11.06,1.54.28,3,.63,4.51.85h.23a173.38,173.38,0,0,0,29.14,2.46,175.09,175.09,0,0,0,29.19-2.46c1.54-.22,3-.57,4.51-.85a43.12,43.12,0,0,0,32.22-40.49v-1a42.63,42.63,0,0,0-9.13-26.4h0a42.66,42.66,0,0,0-33.6-16.36,36.05,36.05,0,0,0-3.62.29l.17-.14-3,.29a80.43,80.43,0,0,1-8.22,1.14l-.68.07c-45.74,4.2-88.54-26.54-98.59-71.37A93.36,93.36,0,0,1,381.06,29c42.38,4.15,77.17,37.59,82.95,79.78a92.44,92.44,0,0,1-14.58,64.1,32.53,32.53,0,0,0,3.15,39.51h0A121.53,121.53,0,0,0,357.57.81Z"/><path d="M306.92,257.1l-.36-.16.36.17Z"/><line class="cls-1" x1="306.47" y1="256.9" x2="306.56" y2="256.94"/><line class="cls-1" x1="306.92" y1="257.11" x2="307.22" y2="257.25"/><line class="cls-1" x1="307.22" y1="257.25" x2="307.46" y2="257.36"/><line class="cls-1" x1="306.56" y1="256.94" x2="306.92" y2="257.11"/><line class="cls-2" x1="421.95" y1="162.24" x2="421.53" y2="162.76"/><path d="M422,78.67A65,65,0,0,1,414,169.73h0c-9-10.69-11.4-25.19-7.21-38.51a37,37,0,0,0,1.58-8A35.79,35.79,0,0,0,400.16,97l-.12-.14A36.15,36.15,0,0,0,367.59,84.4,40.42,40.42,0,0,1,331,70.54h0a64.88,64.88,0,0,1,90.84,7.88Z"/><path d="M0,506.34v-3.19H14.8v3.19c0,9.56,6.26,14.34,16.5,14.34s15.36-4.55,15.36-10.93c0-6.6-5.8-8.88-16-11.15L28,498c-16.5-3.64-26.18-9.22-26.18-23.79S12.86,451,29.93,451s29.48,8.65,29.48,26v3.42H44.62V477c0-9.1-5.58-12.74-14.69-12.74s-13.31,3.64-13.31,9.56,4.44,8.76,14,10.81l2.61.57c17,3.64,28.23,9.56,28.23,24.13S49.74,533.88,31.3,533.88,0,523.64,0,506.34Z"/><path d="M71,460.13A8.82,8.82,0,0,1,80.24,451a9.11,9.11,0,1,1,0,18.21C75,469.23,71,465.59,71,460.13Zm2,15.71H87.41v56.45H73.07Z"/><path d="M103.34,475.84h14.12V482h2c1.94-3.75,6.38-7.06,13.89-7.06,8.08,0,12.63,3.42,15.25,8.43h2.05c2.5-4.78,6.83-8.43,15.48-8.43,10.47,0,18.89,6.61,18.89,20.26v37.11H170.72V496.21c0-6.15-3.41-9.33-9.1-9.33-6.61,0-10.25,4.32-10.25,12.06v33.35H137V496.21c0-6.15-3.41-9.33-9.1-9.33-6.6,0-10.25,4.32-10.25,12.06v33.35H103.34Z"/><path d="M200.54,475.84h14.11v6.82h2c2.62-4.32,7.51-8.42,17.76-8.42,13.54,0,25.49,10.47,25.49,28.91V505c0,18.44-11.84,28.91-25.49,28.91-10.25,0-15.14-4.1-17.53-8.08h-2.05v29.25H200.54Zm45.07,28.79v-1.14c0-10.92-6.71-16.73-15.48-16.73s-15.48,5.81-15.48,16.73v1.14c0,10.93,6.6,16.73,15.48,16.73S245.61,515.56,245.61,504.63Z"/><path d="M273.15,452.62h14.34v79.67H273.15Z"/><path d="M301.38,460.13a9.22,9.22,0,1,1,9.22,9.1C305.36,469.23,301.38,465.59,301.38,460.13Zm2.05,15.71h14.34v56.45H303.43Z"/><path d="M343,487.67H328.69V475.84H343V465.36c0-7.74,5-12.74,12.52-12.74h13.66v11.83h-8.65c-2.05,0-3.18,1.14-3.18,3.42v8h37.1v56.45H380.14V487.67H357.38v44.62H343Zm35.06-27.09c0-5.46,4-9.1,9.22-9.1a9.11,9.11,0,1,1-9.22,9.1Z"/><path d="M407.68,504.86v-1.59c0-18.44,12.86-29,29.25-29,16.16,0,25.61,9.34,28,21.85l-13.88,3c-.92-6.83-5.13-12.06-13.78-12.06S422,492.79,422,503.49v1.14c0,10.7,6.6,16.5,15.25,16.5s12.86-4.89,14.12-12.17l13.88,3.3c-3,12.17-12.18,21.62-28.34,21.62C420.54,533.88,407.68,523.3,407.68,504.86Z"/><path d="M473.47,515.78c0-11.6,9.1-17.64,21.85-17.64H510.8V495c0-5.24-3.19-9.11-10.47-9.11S490,489.49,489,494.62l-13.21-4.44c2.74-8.54,10.13-15.94,24.82-15.94s24.12,7.63,24.12,21.74V517c0,2.27,1.14,3.41,3.19,3.41h4.55v11.84h-9.56c-5.57,0-9.67-3-9.67-7.51v-.12H511c-1,2.85-4.56,9.22-16.39,9.22C482.57,533.88,473.47,527.39,473.47,515.78ZM510.8,510v-1.14H496.34c-5.34,0-8.53,2.39-8.53,6.49s3.19,6.94,9.33,6.94C505.11,522.27,510.8,517.49,510.8,510Z"/><path d="M542.89,475.84H557v7.39h2c1.82-3.87,6.37-8.31,16.5-8.31,13.2,0,22,9.68,22,23.68v33.69H583.18V499.74c0-8.54-4.32-12.75-12.06-12.75-8.76,0-13.89,6.15-13.89,16.62v28.68H542.89Z"/><path d="M610.27,505v-1.82c0-18.44,11.84-28.91,25.5-28.91,10.24,0,15.13,4.1,17.52,8.08h2.05v-29.7h14.34v79.67H655.57v-6.83h-2.05c-2.62,4.32-7.51,8.42-17.75,8.42C622.22,533.88,610.27,523.41,610.27,505Zm45.3-.34v-1.14c0-10.92-6.6-16.73-15.48-16.73s-15.48,5.81-15.48,16.73v1.14c0,10.93,6.72,16.73,15.48,16.73S655.57,515.56,655.57,504.63Z"/><path d="M682.89,505v-1.82c0-18.21,12.74-28.91,29.59-28.91s29.59,10.7,29.59,28.91V505c0,18.21-12.75,28.91-29.59,28.91S682.89,523.18,682.89,505Zm44.84-.34v-1.14c0-10.58-6.37-16.5-15.25-16.5s-15.25,5.92-15.25,16.5v1.14c0,10.59,6.48,16.5,15.25,16.5S727.73,515.22,727.73,504.63Z"/></g></g></svg>