<svg xmlns="http://www.w3.org/2000/svg" viewBox="0 0 626.52 739.79"><defs><style>.cls-1{fill:#1ac457;}</style></defs><g id="Camada_2" data-name="Camada 2"><g id="Camada_1-2" data-name="Camada 1"><path class="cls-1" d="M241.86,428.51h0c3.61,25.34,24.1,45.26,49.62,47.31q12.34,1,24.7,1,11.63,0,23.24-.89c25.35-1.94,45.72-21.77,49.26-46.95h0a278.9,278.9,0,0,1-72.5,9.81A276.4,276.4,0,0,1,241.86,428.51Z"/><path class="cls-1" d="M297.31,1.07C222,9.63,161.76,71.07,154.6,146.57c-8.41,88.55,54.87,164.22,138.45,176.2v0a163.12,163.12,0,0,0,23.11,1.84A160.68,160.68,0,0,0,344,322.16h1.1a6.36,6.36,0,0,1,2.59,0A18.77,18.77,0,0,1,355.06,358a7.27,7.27,0,0,1-1.14.53,11.89,11.89,0,0,1-2.21.84,4.93,4.93,0,0,1-1.07.15l-12.3,1.74a177.74,177.74,0,0,1-44,0l-12.22-1.76c-3.3-.59-6.55-1.23-9.71-1.94l3.84.85c-1.27-.29-2.57-.54-3.83-.83s-2.21-.46-3.27-.76c-2.89-.68-5.71-1.44-8.45-2.21l-3.88-1.14c-2.58-.83-5.17-1.67-7.61-2.51-1.06-.38-2-.76-3-1.14-4.11-1.52-7.91-3.12-11.56-4.71-1.54-.64-3-1.33-4.42-2l.33.15-.33-.15-.4-.18-.48-.22-.11-.06h0c-.38-.16-.76-.32-1.1-.49A56.09,56.09,0,0,0,232.21,362l0,.16.27.64a1.34,1.34,0,0,1,.07.18v0h0a.05.05,0,0,1,0,0l.23.54v-.1a57,57,0,0,0,38,32.76c.07,0,.07,0,.15.08,2.05.38,3.95.83,6,1.14h.3a231.94,231.94,0,0,0,38.87,3.27,234.2,234.2,0,0,0,38.95-3.27c2.06-.31,4-.76,6-1.14a57.5,57.5,0,0,0,43-54V341A56.92,56.92,0,0,0,392,305.73h0a56.91,56.91,0,0,0-44.83-21.83c-1.64,0-3.22.24-4.83.39l.23-.18-4,.39a108,108,0,0,1-11,1.52l-.91.09c-61,5.61-118.11-35.4-131.52-95.2C176,105.73,245,30.46,328.65,38.65c56.53,5.53,102.94,50.14,110.65,106.42a123.34,123.34,0,0,1-19.44,85.51c-10.85,16.35-8.85,38.06,4.19,52.71h0a161.9,161.9,0,0,0,54.47-121C478.52,66.58,395.16-10,297.31,1.07Z"/><path class="cls-1" d="M229.74,343l-.48-.21.48.22Z"/><line class="cls-1" x1="229.15" y1="342.71" x2="229.26" y2="342.77"/><line class="cls-1" x1="229.74" y1="342.99" x2="230.14" y2="343.17"/><line class="cls-1" x1="230.14" y1="343.17" x2="230.47" y2="343.32"/><line class="cls-1" x1="229.26" y1="342.77" x2="229.74" y2="342.99"/><line class="cls-1" x1="383.2" y1="216.44" x2="382.63" y2="217.13"/><path class="cls-1" d="M383.3,105a86.7,86.7,0,0,1-10.78,121.48h0c-12-14.27-15.21-33.61-9.61-51.38A50.17,50.17,0,0,0,365,164.34a47.82,47.82,0,0,0-10.89-35l-.16-.18a48.26,48.26,0,0,0-43.29-16.58c-18.46,2.46-36.93-4.17-48.84-18.48h0C298.19,63.84,352.56,68.56,383,104.61Z"/><path d="M0,601.22v-2.69H12.49v2.69c0,8.07,5.29,12.11,13.94,12.11s13-3.84,13-9.22c0-5.58-4.9-7.5-13.55-9.42l-2.21-.48c-13.93-3.08-22.1-7.79-22.1-20.09s9.32-19.6,23.73-19.6,24.89,7.3,24.89,21.91v2.88H37.67v-2.88c0-7.69-4.71-10.77-12.4-10.77S14,568.74,14,573.74s3.75,7.4,11.82,9.13l2.21.48c14.32,3.07,23.83,8.07,23.83,20.37S42,624.48,26.43,624.48,0,615.83,0,601.22Z"/><path d="M60,562.2a7.44,7.44,0,0,1,7.78-7.68,7.69,7.69,0,1,1,0,15.37A7.44,7.44,0,0,1,60,562.2Zm1.73,13.27H73.8v47.66H61.69Z"/><path d="M87.25,575.47H99.17v5.19h1.73c1.63-3.18,5.38-6,11.72-6,6.82,0,10.67,2.88,12.88,7.11h1.73c2.11-4,5.76-7.11,13.07-7.11,8.84,0,15.95,5.57,15.95,17.1v31.33H144.14V592.67c0-5.19-2.88-7.88-7.69-7.88-5.57,0-8.65,3.65-8.65,10.19v28.15H115.7V592.67c0-5.19-2.89-7.88-7.69-7.88-5.58,0-8.65,3.65-8.65,10.19v28.15H87.25Z"/><path d="M169.31,575.47h11.92v5.76H183c2.21-3.65,6.34-7.11,15-7.11,11.44,0,21.53,8.84,21.53,24.41v1.54c0,15.57-10,24.41-21.53,24.41-8.65,0-12.78-3.46-14.8-6.83h-1.73v24.7H169.31Zm38.06,24.31v-1c0-9.23-5.67-14.13-13.07-14.13s-13.07,4.9-13.07,14.13v1c0,9.23,5.57,14.13,13.07,14.13S207.37,609,207.37,599.78Z"/><path d="M230.62,555.86h12.11v67.27H230.62Z"/><path d="M254.45,562.2a7.79,7.79,0,1,1,7.78,7.69A7.44,7.44,0,0,1,254.45,562.2Zm1.73,13.27h12.11v47.66H256.18Z"/><path d="M289.62,585.46H277.51v-10h12.11v-8.84c0-6.54,4.23-10.77,10.57-10.77h11.53v10h-7.3c-1.73,0-2.69,1-2.69,2.88v6.73h31.33v47.66H321V585.46H301.73v37.67H289.62Zm29.6-22.87a7.79,7.79,0,1,1,7.78,7.69A7.44,7.44,0,0,1,319.22,562.59Z"/><path d="M344.2,600v-1.34c0-15.57,10.86-24.51,24.7-24.51,13.64,0,21.62,7.88,23.64,18.45l-11.73,2.5c-.77-5.76-4.32-10.19-11.63-10.19s-12.87,4.91-12.87,13.94v1c0,9,5.57,13.93,12.87,13.93s10.86-4.13,11.92-10.28l11.72,2.79c-2.49,10.28-10.28,18.26-23.92,18.26C355.06,624.48,344.2,615.54,344.2,600Z"/><path d="M399.74,609.2c0-9.8,7.69-14.9,18.45-14.9h13.07v-2.69c0-4.42-2.69-7.69-8.84-7.69s-8.75,3.08-9.61,7.4l-11.15-3.74c2.31-7.21,8.55-13.46,20.95-13.46S443,580.56,443,592.48v17.78c0,1.92,1,2.88,2.7,2.88h3.84v10h-8.07c-4.71,0-8.17-2.5-8.17-6.34v-.1h-1.83c-.86,2.41-3.84,7.79-13.84,7.79C407.43,624.48,399.74,619,399.74,609.2Zm31.52-4.9v-1h-12.2c-4.52,0-7.21,2-7.21,5.47s2.69,5.87,7.88,5.87C426.46,614.68,431.26,610.64,431.26,604.3Z"/><path d="M458.35,575.47h11.92v6.24H472c1.54-3.26,5.38-7,13.94-7,11.14,0,18.54,8.17,18.54,20v28.44H492.37V595.65c0-7.21-3.65-10.77-10.18-10.77-7.4,0-11.73,5.19-11.73,14v24.21H458.35Z"/><path d="M515.24,600.07v-1.54c0-15.57,10-24.41,21.53-24.41,8.65,0,12.78,3.46,14.8,6.82h1.73V555.86h12.11v67.27H553.49v-5.76h-1.73c-2.21,3.65-6.34,7.11-15,7.11C525.33,624.48,515.24,615.64,515.24,600.07Zm38.25-.29v-1c0-9.23-5.57-14.13-13.07-14.13s-13.07,4.9-13.07,14.13v1c0,9.23,5.67,14.13,13.07,14.13S553.49,609,553.49,599.78Z"/><path d="M576.55,600.07v-1.54c0-15.38,10.76-24.41,25-24.41s25,9,25,24.41v1.54c0,15.37-10.76,24.41-25,24.41S576.55,615.44,576.55,600.07Zm37.86-.29v-1c0-8.94-5.38-13.94-12.88-13.94s-12.87,5-12.87,13.94v1c0,8.94,5.47,13.93,12.87,13.93S614.41,608.72,614.41,599.78Z"/><path d="M86.29,724.51c0-9.8,7.69-14.9,18.45-14.9h13.07v-2.69c0-4.42-2.69-7.69-8.84-7.69s-8.75,3.08-9.61,7.41l-11.15-3.75c2.31-7.21,8.55-13.46,21-13.46s20.37,6.44,20.37,18.36v17.78c0,1.92,1,2.88,2.7,2.88h3.84v10H128c-4.71,0-8.17-2.5-8.17-6.34V732H118c-.86,2.4-3.84,7.78-13.84,7.78C94,739.79,86.29,734.31,86.29,724.51Zm31.52-4.9v-1h-12.2c-4.52,0-7.21,2-7.21,5.47s2.69,5.87,7.88,5.87C113,730,117.81,726,117.81,719.61Z"/><path d="M165.66,718.26v-6.34h12.69v6.34c0,6.06,3.46,9.61,9.51,9.61,5.67,0,8.94-3.46,8.94-9.61V682.71H185.27V671.17h31.9v11.54h-7.69v35.55c0,13.94-8.07,21.53-21.24,21.53C174.41,739.79,165.66,731.81,165.66,718.26Z"/><path d="M222,715.38v-1.54c0-15.37,10.76-24.41,25-24.41s25,9,25,24.41v1.54c0,15.38-10.76,24.41-25,24.41S222,730.76,222,715.38Zm37.86-.29v-1c0-8.94-5.38-13.93-12.87-13.93s-12.88,5-12.88,13.93v1C234.08,724,239.56,729,247,729S259.83,724,259.83,715.09Z"/><path d="M283.09,690.78H295v5.38h1.73c1.35-3.84,4.81-5.57,9.23-5.57h5.76v10.76h-6c-6.16,0-10.58,3.27-10.58,10v27.1h-12.1Z"/><path d="M321.14,690.78h11.91V697h1.73c1.54-3.26,5.39-7,13.94-7,11.15,0,18.55,8.17,18.55,20v28.44H355.16V711c0-7.21-3.66-10.76-10.19-10.76-7.4,0-11.72,5.19-11.72,14v24.21H321.14Z"/><path d="M377.25,724.51c0-9.8,7.69-14.9,18.46-14.9h13.07v-2.69c0-4.42-2.7-7.69-8.85-7.69s-8.74,3.08-9.6,7.41l-11.15-3.75c2.3-7.21,8.55-13.46,20.95-13.46s20.37,6.44,20.37,18.36v17.78c0,1.92,1,2.88,2.69,2.88H427v10H419c-4.71,0-8.17-2.5-8.17-6.34V732H409c-.87,2.4-3.85,7.78-13.84,7.78C384.94,739.79,377.25,734.31,377.25,724.51Zm31.53-4.9v-1H396.57c-4.52,0-7.21,2-7.21,5.47s2.69,5.87,7.88,5.87C404,730,408.78,726,408.78,719.61Z"/><path d="M432.6,715.38v-1.54c0-15.57,10-24.41,21.53-24.41,8.65,0,12.78,3.46,14.8,6.83h1.73V671.17h12.11v67.27H470.85v-5.76h-1.73c-2.21,3.65-6.34,7.11-15,7.11C442.69,739.79,432.6,731,432.6,715.38Zm38.25-.29v-1c0-9.23-5.57-14.13-13.07-14.13s-13.07,4.9-13.07,14.13v1c0,9.23,5.67,14.13,13.07,14.13S470.85,724.32,470.85,715.09Z"/><path d="M493.14,724.51c0-9.8,7.69-14.9,18.45-14.9h13.07v-2.69c0-4.42-2.69-7.69-8.84-7.69s-8.74,3.08-9.61,7.41l-11.15-3.75c2.31-7.21,8.56-13.46,20.95-13.46s20.38,6.44,20.38,18.36v17.78c0,1.92,1,2.88,2.69,2.88h3.84v10h-8.07c-4.71,0-8.17-2.5-8.17-6.34V732h-1.83c-.86,2.4-3.84,7.78-13.83,7.78C500.83,739.79,493.14,734.31,493.14,724.51Zm31.52-4.9v-1h-12.2c-4.52,0-7.21,2-7.21,5.47s2.69,5.87,7.88,5.87C519.86,730,524.66,726,524.66,719.61Z"/></g></g></svg>