<svg xmlns="http://www.w3.org/2000/svg" viewBox="0 0 655.79 464.99"><defs><style>.cls-1{fill:#759bde;}</style></defs><g id="Camada_2" data-name="Camada 2"><g id="Camada_1-2" data-name="Camada 1"><path class="cls-1" d="M279.26,283.87h0a36.43,36.43,0,0,0,32.87,31.34q8.17.66,16.37.66,7.69,0,15.39-.6c16.79-1.28,30.28-14.42,32.63-31.1h0a184.87,184.87,0,0,1-48,6.5A183.34,183.34,0,0,1,279.26,283.87Z"/><path class="cls-1" d="M316,.71C266.07,6.38,226.2,47.08,221.45,97.1c-5.57,58.65,36.35,108.78,91.72,116.72h0a101.11,101.11,0,0,0,33.75-.41h.72a4.21,4.21,0,0,1,1.72,0,12.43,12.43,0,0,1,4.89,23.73,5.66,5.66,0,0,1-.76.35,7.42,7.42,0,0,1-1.46.56,3.38,3.38,0,0,1-.71.1l-8.15,1.15a131.2,131.2,0,0,1-14.75.92,128.36,128.36,0,0,1-14.43-.89l-8.09-1.17c-2.19-.39-4.34-.81-6.44-1.28l2.54.56-2.53-.55c-.76-.15-1.46-.3-2.17-.5-1.91-.46-3.78-1-5.59-1.47l-2.57-.75c-1.72-.56-3.43-1.11-5-1.66l-2-.76c-2.72-1-5.24-2.07-7.66-3.13-1-.41-2-.87-2.92-1.3l.21.1-.21-.1-.27-.12-.31-.14-.08,0h0l-.73-.33a37.18,37.18,0,0,0,2.76,13.07v.11l.18.42.05.12v0h0l0,0,.15.36v-.07a37.78,37.78,0,0,0,25.19,21.7c.05,0,.05,0,.1.05,1.36.25,2.62.55,4,.76h.2a153.52,153.52,0,0,0,25.76,2.16,155,155,0,0,0,25.8-2.16c1.36-.21,2.62-.51,4-.76a38.09,38.09,0,0,0,28.47-35.78v-.86a37.7,37.7,0,0,0-8.06-23.33h0A37.72,37.72,0,0,0,349,188.08c-1.09,0-2.13.16-3.2.26l.15-.12-2.66.25a70.42,70.42,0,0,1-7.26,1l-.6.06c-40.43,3.71-78.24-23.45-87.12-63.07A82.5,82.5,0,0,1,336.75,25.6c37.45,3.67,68.2,33.22,73.3,70.5a81.65,81.65,0,0,1-12.88,56.65A28.77,28.77,0,0,0,400,187.67h0a107.4,107.4,0,0,0-84-187Z"/><path class="cls-1" d="M271.23,227.21l-.31-.14.31.14Z"/><line class="cls-1" x1="270.84" y1="227.03" x2="270.92" y2="227.07"/><line class="cls-1" x1="271.23" y1="227.21" x2="271.5" y2="227.33"/><line class="cls-1" x1="271.5" y1="227.33" x2="271.71" y2="227.43"/><line class="cls-1" x1="270.92" y1="227.07" x2="271.23" y2="227.21"/><line class="cls-1" x1="372.89" y1="143.38" x2="372.51" y2="143.84"/><path class="cls-1" d="M373,69.52A57.44,57.44,0,0,1,365.82,150h0a35.88,35.88,0,0,1-6.37-34,32.15,32.15,0,0,0,1.39-7.09,31.68,31.68,0,0,0-7.21-23.19l-.1-.12a32,32,0,0,0-28.68-11,35.7,35.7,0,0,1-32.36-12.25h0a57.36,57.36,0,0,1,80.28,7Z"/><path d="M0,421.94v-2.82H13.08v2.82c0,8.45,5.53,12.67,14.58,12.67s13.58-4,13.58-9.65c0-5.84-5.13-7.85-14.18-9.86l-2.32-.5c-14.58-3.22-23.13-8.15-23.13-21s9.76-20.52,24.84-20.52S52.51,380.7,52.51,396v3H39.43v-3c0-8.05-4.93-11.27-13-11.27s-11.76,3.22-11.76,8.45,3.92,7.75,12.37,9.56l2.31.5c15,3.22,25,8.45,25,21.33S44,446.28,27.66,446.28,0,437.23,0,421.94Z"/><path d="M62.76,381.1a7.78,7.78,0,0,1,8.15-8,8,8,0,1,1,0,16.09A7.79,7.79,0,0,1,62.76,381.1ZM64.57,395H77.25v49.89H64.57Z"/><path d="M91.33,395H103.8v5.43h1.81c1.71-3.31,5.63-6.23,12.27-6.23,7.14,0,11.17,3,13.48,7.44h1.81c2.21-4.22,6-7.44,13.68-7.44,9.25,0,16.7,5.83,16.7,17.9v32.79H150.87V413c0-5.43-3-8.25-8-8.25-5.84,0-9.06,3.82-9.06,10.66v29.47H121.1V413c0-5.43-3-8.25-8-8.25-5.83,0-9,3.82-9,10.66v29.47H91.33Z"/><path d="M177.22,395h12.47v6h1.81c2.32-3.82,6.64-7.44,15.7-7.44,12,0,22.53,9.25,22.53,25.54v1.61c0,16.3-10.46,25.55-22.53,25.55-9.06,0-13.38-3.62-15.49-7.14H189.9V465H177.22Zm39.83,25.45v-1c0-9.66-5.93-14.79-13.68-14.79s-13.68,5.13-13.68,14.79v1c0,9.66,5.84,14.79,13.68,14.79S217.05,430.09,217.05,420.43Z"/><path d="M241.39,374.46h12.68v70.41H241.39Z"/><path d="M266.33,381.1a8.15,8.15,0,1,1,8.15,8A7.79,7.79,0,0,1,266.33,381.1ZM268.15,395h12.67v49.89H268.15Z"/><path d="M303.15,405.44H290.47V395h12.68v-9.25c0-6.84,4.42-11.27,11.06-11.27h12.07v10.46h-7.64c-1.81,0-2.82,1-2.82,3v7h32.79v49.89H335.94V405.44H315.82v39.43H303.15Zm31-23.94a8.15,8.15,0,1,1,8.15,8.05A7.79,7.79,0,0,1,334.13,381.5Z"/><path d="M360.28,420.63v-1.41c0-16.29,11.36-25.64,25.85-25.64,14.28,0,22.63,8.24,24.74,19.31L398.6,415.5c-.8-6-4.53-10.66-12.17-10.66S373,410,373,419.43v1c0,9.46,5.84,14.59,13.48,14.59s11.37-4.33,12.47-10.77l12.27,2.92c-2.61,10.76-10.76,19.11-25,19.11C371.64,446.28,360.28,436.93,360.28,420.63Z"/><path d="M418.41,430.29c0-10.26,8-15.59,19.32-15.59h13.68v-2.82c0-4.63-2.82-8.05-9.26-8.05s-9.15,3.22-10.06,7.75l-11.67-3.92c2.42-7.55,9-14.08,21.93-14.08s21.33,6.73,21.33,19.21V431.4c0,2,1,3,2.81,3h4v10.46h-8.45c-4.93,0-8.55-2.61-8.55-6.63v-.11h-1.91c-.91,2.52-4,8.15-14.49,8.15C426.46,446.28,418.41,440.55,418.41,430.29Zm33-5.13v-1H438.63c-4.73,0-7.54,2.12-7.54,5.74s2.81,6.13,8.24,6.13C446.38,436,451.41,431.8,451.41,425.16Z"/><path d="M479.77,395h12.47v6.54h1.81c1.61-3.42,5.63-7.34,14.58-7.34,11.67,0,19.42,8.55,19.42,20.92v29.77H515.37V416.11c0-7.55-3.82-11.27-10.66-11.27-7.74,0-12.27,5.43-12.27,14.69v25.34H479.77Z"/><path d="M539.31,420.73v-1.61c0-16.29,10.46-25.54,22.53-25.54,9,0,13.38,3.62,15.49,7.14h1.81V374.46h12.68v70.41H579.34v-6h-1.81c-2.31,3.82-6.64,7.44-15.69,7.44C549.87,446.28,539.31,437,539.31,420.73Zm40-.3v-1c0-9.66-5.83-14.79-13.68-14.79S552,409.77,552,419.43v1c0,9.66,5.94,14.79,13.68,14.79S579.34,430.09,579.34,420.43Z"/><path d="M603.48,420.73v-1.61c0-16.09,11.27-25.54,26.15-25.54s26.16,9.45,26.16,25.54v1.61c0,16.1-11.27,25.55-26.16,25.55S603.48,436.83,603.48,420.73Zm39.63-.3v-1c0-9.36-5.63-14.59-13.48-14.59s-13.48,5.23-13.48,14.59v1c0,9.36,5.74,14.59,13.48,14.59S643.11,429.79,643.11,420.43Z"/></g></g></svg>